<?xml version="1.0" ?><svg viewBox="0 0 64 64" xmlns="http://www.w3.org/2000/svg"><defs><style>.cls-1{fill:#748a95;}.cls-2{fill:#f0f4f7;}.cls-3{fill:#e0e9ee;}.cls-4{fill:#dd5891;}.cls-5{fill:#efc89d;}.cls-6{fill:#aaddb4;}.cls-7{fill:#92d39d;}.cls-8{fill:#74c782;}.cls-9{fill:#f6e782;}.cls-10{fill:#617880;}.cls-11{fill:#172335;}</style></defs><g id="Clown"><path class="cls-1" d="M17.24,24.56A5.06,5.06,0,0,0,16,27.88a5,5,0,0,0,.43,2A5,5,0,0,0,18.55,39a5,5,0,0,0,8.57,1.85h9.8A5,5,0,0,0,45.5,39a5,5,0,0,0,2.11-9.09,5.16,5.16,0,0,0,.44-2,5.07,5.07,0,0,0-1.25-3.32Z" id="path62769-7"/><path class="cls-2" d="M36.67,43.32H26.88a9,9,0,0,0-2.5,2.16l-2.17,3.79L20,47.39l-.49.21a9.13,9.13,0,0,0-5.28,6.58A1.53,1.53,0,0,0,15.77,56H20l2.17-2.84L24.38,56h4.53l2.87-3.1L34.64,56h4.53l2.17-2.84L43.52,56h4.26a1.53,1.53,0,0,0,1.5-1.82A9.13,9.13,0,0,0,44,47.6l-.48-.21-2.17,1.88-2.17-3.79A4.83,4.83,0,0,0,36.67,43.32Z" id="path125068"/><path class="cls-3" d="M43.52,47.39l-1.71,1.48A9.14,9.14,0,0,1,45,54.18,1.52,1.52,0,0,1,43.52,56h4.26a1.53,1.53,0,0,0,1.5-1.82A9.13,9.13,0,0,0,44,47.6Z" id="path161031"/><path class="cls-4" d="M34.64,56V45.93H28.91V56Z" id="path44101-7"/><path class="cls-4" d="M24.38,45.48,20,47.39V56h4.34Z" id="path122233"/><path class="cls-4" d="M39.17,45.48V56h4.35V47.39l-4.34-1.91Z" id="path43458-8"/><path class="cls-5" d="M36.67,39.43v3.89a4.9,4.9,0,1,1-9.79,0V39.43Z" id="rect27794-0-6-8"/><path class="cls-2" d="M44.27,24.57a26.78,26.78,0,0,1-.63,6.33c-1.71,5.75-6.38,11.31-11.86,11.31S21.62,36.65,19.91,30.9a26.78,26.78,0,0,1-.63-6.33l12.5-3.27Z" id="path50926-1"/><path class="cls-6" d="M17,20.08H46.54a2.25,2.25,0,0,1,0,4.49H17a2.25,2.25,0,1,1,0-4.49Z" id="rect51499-2"/><path class="cls-4" d="M34.41,32.51a21.71,21.71,0,0,0,3.44-.84.38.38,0,0,1,.54.38,6.61,6.61,0,0,1-13.22,0,.37.37,0,0,1,.53-.38,22,22,0,0,0,3.44.84Z" id="rect52479-3"/><path class="cls-7" d="M24.18,8a3.1,3.1,0,0,0-3,2.52l-1,5.11,11.61,3.22,11.6-3.22-1-5.11a3.1,3.1,0,0,0-3-2.52Z" id="rect58096-19"/><path class="cls-8" d="M35.08,8a3.1,3.1,0,0,1,3,2.52l1.81,9.55h4.3l-1.82-9.55a3.1,3.1,0,0,0-3-2.52Z" id="path142254"/><path class="cls-9" d="M34.46,32a2.69,2.69,0,1,1-2.68-2.68A2.68,2.68,0,0,1,34.46,32Z" id="path52263-9"/><path class="cls-1" d="M20.17,15.63l-.84,4.44h24.9l-.85-4.44Z" id="path58618-4"/><path class="cls-10" d="M39.09,15.63l.84,4.44h4.3l-.85-4.44Z" id="path146252"/><path class="cls-7" d="M42.26,20.07a2.25,2.25,0,0,1,0,4.5h4.28a2.25,2.25,0,0,0,0-4.5Z" id="path148721"/><path class="cls-3" d="M40.7,24.57a26.77,26.77,0,0,1-.62,6.33C38.55,36,34.69,41,30,42a8.25,8.25,0,0,0,1.79.2c5.48,0,10.15-5.56,11.86-11.31a26.78,26.78,0,0,0,.63-6.33Z" id="path159056"/><path class="cls-11" d="M23.69,44.7l-4.54,2A10.13,10.13,0,0,0,13.29,54a2.53,2.53,0,0,0,2.48,3h32a2.53,2.53,0,0,0,2.48-3,10.1,10.1,0,0,0-5.86-7.3l-4.53-2A5.64,5.64,0,0,0,38.19,43a6.11,6.11,0,0,0,2.5.54,6,6,0,0,0,5.55-3.68A6,6,0,0,0,48.8,29.59a6.55,6.55,0,0,0,.25-1.71A6,6,0,0,0,48.31,25a3.24,3.24,0,0,0-1.77-6H45.06l-1.67-8.75a4.08,4.08,0,0,0-4-3.33H24.18a4.09,4.09,0,0,0-4,3.33L18.5,19.08H17a3.24,3.24,0,0,0-1.39,6.17A6,6,0,0,0,15,27.88a6.14,6.14,0,0,0,.24,1.71A6,6,0,0,0,17.8,39.87a6,6,0,0,0,7.09,3.47A5.8,5.8,0,0,0,23.69,44.7Zm2.42.23a5.85,5.85,0,0,0,1.8,2.83V55H25.38V45.79A3.55,3.55,0,0,1,26.11,44.93ZM42.52,55H40.17V47l2.35,1Zm-4.35,0H35.64V47.76a6,6,0,0,0,1.81-2.83,3.69,3.69,0,0,1,.72.85ZM27.88,42.35a9.25,9.25,0,0,0,7.79,0v1a3.9,3.9,0,1,1-7.79,0Zm3.9,6.87a5.71,5.71,0,0,0,1.86-.31V55H29.91V48.91A5.78,5.78,0,0,0,31.78,49.22Zm4.47-9.41h0a8.25,8.25,0,0,1-4.47,1.4c-5.1,0-9.34-5.33-10.91-10.6a22.38,22.38,0,0,1-.57-5h23a22.33,22.33,0,0,1-.58,5A16.89,16.89,0,0,1,36.25,39.81ZM23.38,55H21V48l2.34-1Zm-8-.19a.5.5,0,0,1-.11-.44A8.07,8.07,0,0,1,19,49v6H15.77A.49.49,0,0,1,15.37,54.81Zm32.93-.44a.52.52,0,0,1-.52.63H44.52V49A8.13,8.13,0,0,1,48.3,54.37ZM45.34,38a1,1,0,0,0-.8.69,4,4,0,0,1-6.24,2.06,19.59,19.59,0,0,0,6.3-9.59,25.28,25.28,0,0,0,.66-5.61h1a4,4,0,0,1,.75,2.31,4.19,4.19,0,0,1-.35,1.63A1,1,0,0,0,47,30.73,4,4,0,0,1,45.34,38ZM24.18,9h15.2a2.1,2.1,0,0,1,2,1.7l.75,3.93H21.38l.74-3.93A2.1,2.1,0,0,1,24.18,9ZM21,16.63H42.56L43,19.08H20.53Zm-4,4.45H46.54a1.25,1.25,0,0,1,0,2.49H17a1.25,1.25,0,1,1,0-2.49ZM19.5,38.71a1,1,0,0,0-.8-.69A4,4,0,0,1,17,30.73a1,1,0,0,0,.34-1.22,4,4,0,0,1,.4-3.94h.56A24.67,24.67,0,0,0,19,31.18a19.44,19.44,0,0,0,6.51,9.75,4,4,0,0,1-2.1.62A4,4,0,0,1,19.5,38.71Z"/><path class="cls-11" d="M38.82,30.9a1.41,1.41,0,0,0-1.28-.18,21.64,21.64,0,0,1-2.15.59,3.68,3.68,0,0,0-7.23,0A20.53,20.53,0,0,1,26,30.72a1.43,1.43,0,0,0-1.29.18,1.39,1.39,0,0,0-.56,1.15,7.61,7.61,0,0,0,15.22,0A1.4,1.4,0,0,0,38.82,30.9Zm-7-.58A1.68,1.68,0,1,1,30.09,32,1.68,1.68,0,0,1,31.78,30.32Zm0,7.33a5.61,5.61,0,0,1-5.55-4.77c.57.17,1.31.35,2.14.51a3.68,3.68,0,0,0,6.81,0c.83-.16,1.57-.34,2.14-.51A5.6,5.6,0,0,1,31.78,37.65Z"/></g></svg>